<svg height="512pt" viewBox="0 0 512 512" width="512pt" xmlns="http://www.w3.org/2000/svg"><path d="m512 256c0 141.386719-114.613281 256-256 256s-256-114.613281-256-256 114.613281-256 256-256 256 114.613281 256 256zm0 0" fill="#80dbff"/><path d="m511.597656 270.269531-168.554687-168.550781-267.457031 248.597656 160.953124 160.953125c6.425782.480469 12.914063.730469 19.460938.730469 136.59375 0 248.191406-106.984375 255.597656-241.730469zm0 0" fill="#4ab8f7"/><path d="m456.304688 298.882812c0 42.21875-34.226563 76.441407-76.445313 76.441407s-76.445313-34.222657-76.445313-76.441407c0-42.222656 34.226563-76.445312 76.445313-76.445312s76.445313 34.222656 76.445313 76.445312zm0 0" fill="#dce1eb"/><path d="m413.066406 282.890625c0 18.335937-14.867187 33.203125-33.207031 33.203125s-33.207031-14.867188-33.207031-33.203125c0-18.339844 14.867187-33.207031 33.207031-33.207031s33.207031 14.867187 33.207031 33.207031zm0 0" fill="#e09380"/><path d="m327.058594 354.160156c13.722656 13.113282 32.324218 21.164063 52.800781 21.164063 20.480469 0 39.078125-8.050781 52.800781-21.164063-8.40625-20.921875-28.871094-35.707031-52.800781-35.707031s-44.390625 14.78125-52.800781 35.707031zm0 0" fill="#de4726"/><path d="m208.585938 298.882812c0 42.21875-34.226563 76.441407-76.445313 76.441407s-76.445313-34.222657-76.445313-76.441407c0-42.222656 34.226563-76.445312 76.445313-76.445312s76.445313 34.222656 76.445313 76.445312zm0 0" fill="#fff"/><path d="m165.347656 282.890625c0 18.335937-14.867187 33.203125-33.207031 33.203125s-33.207031-14.867188-33.207031-33.203125c0-18.339844 14.867187-33.207031 33.207031-33.207031s33.207031 14.867187 33.207031 33.207031zm0 0" fill="#ffbeaa"/><path d="m79.339844 354.160156c13.722656 13.113282 32.320312 21.164063 52.800781 21.164063s39.078125-8.050781 52.800781-21.164063c-8.410156-20.921875-28.871094-35.707031-52.800781-35.707031s-44.394531 14.78125-52.800781 35.707031zm0 0" fill="#ff7045"/><path d="m372.441406 179.050781c0 64.308594-52.132812 116.4375-116.441406 116.4375s-116.441406-52.128906-116.441406-116.4375c0-64.308593 52.132812-116.441406 116.441406-116.441406s116.441406 52.132813 116.441406 116.441406zm0 0" fill="#4a7aff"/><path d="m256 62.609375c-.136719 0-.269531.003906-.40625.003906v232.871094c.136719 0 .269531.003906.40625.003906 64.308594 0 116.441406-52.132812 116.441406-116.441406 0-64.304687-52.132812-116.4375-116.441406-116.4375zm0 0" fill="#0053bf"/><path d="m306.578125 154.6875c0 27.9375-22.644531 50.582031-50.578125 50.582031s-50.578125-22.644531-50.578125-50.582031c0-27.933594 22.644531-50.578125 50.578125-50.578125s50.578125 22.644531 50.578125 50.578125zm0 0" fill="#ffbeaa"/><path d="m256 104.109375c-.136719 0-.269531.007813-.40625.007813v101.140624c.136719 0 .269531.011719.40625.011719 27.933594 0 50.578125-22.648437 50.578125-50.582031s-22.644531-50.578125-50.578125-50.578125zm0 0" fill="#e09380"/><path d="m175.574219 263.25c20.902343 19.972656 49.230469 32.238281 80.425781 32.238281s59.523438-12.265625 80.425781-32.242187c-12.808593-31.867188-43.972656-54.382813-80.425781-54.382813-36.449219 0-67.617188 22.515625-80.425781 54.386719zm0 0" fill="#ffce00"/><path d="m336.425781 263.25c-12.808593-31.871094-43.972656-54.386719-80.425781-54.386719-.136719 0-.269531.007813-.40625.007813v86.613281c.136719 0 .269531.003906.40625.003906 31.195312 0 59.523438-12.265625 80.425781-32.238281zm0 0" fill="#ffb600"/></svg>