<svg id="flat" height="512" viewBox="0 0 512 512" width="512" xmlns="http://www.w3.org/2000/svg"><path d="m312 320v43.15562a95.26659 95.26659 0 0 1 -16 52.84438h-88v-96z" fill="#f5c99d"/><path d="m216 88a52.84436 52.84436 0 0 0 8.87524 29.31281l7.12476 10.68719v8h48v-8l7.12476-10.68719a52.84436 52.84436 0 0 0 8.87524-29.31281z" fill="#d45d13"/><path d="m344.00005 290.30993-.00005-90.30993a72 72 0 0 0 -72-72h-32a72 72 0 0 0 -72 72v80a14.4721 14.4721 0 0 1 -8 12.94426 14.47212 14.47212 0 0 0 -8 12.94426v14.11148h208v-7.05574a24.01 24.01 0 0 0 -15.99995-22.63433z" fill="#f07f2f"/><path d="m248 128v.00006a23.99994 23.99994 0 0 0 23.99994 23.99994h.00006a40 40 0 0 1 40 40v96.94426h32v-88.94426a72 72 0 0 0 -72-72z" fill="#de6a1e"/><path d="m72 288h22.05332a81.94183 81.94183 0 0 1 57.948 24.00655l39.99868-.00467 16 15.99812v48h-48a119.99989 119.99989 0 0 1 -72-24h-16z" fill="#f5c99d"/><path d="m24 264h48v96h-48z" fill="#009ff5"/><path d="m440.00051 288h-14.05309a81.94057 81.94057 0 0 0 -57.94737 24.00655l-39.99825-.00469-15.9998 15.99814v48h47.99953a119.99778 119.99778 0 0 0 71.99917-24h7.99983z" fill="#f5c99d"/><path d="m440.001 264h55.999v96h-55.999z" fill="#009ff5"/><g fill="#f07f2f"><path d="m120 144h24v16h-24z"/><path d="m368 144h24v16h-24z"/><path d="m331.682 56.319h24v16h-24z" transform="matrix(.707 -.707 .707 .707 55.19 261.871)"/></g><path d="m264 216h-16a8 8 0 0 1 0-16h32v-16h-16v-16h-16v16a24 24 0 0 0 0 48h16a8.00049 8.00049 0 0 1 .00684 16.001l-32.00684-.001v16l16 .00049v15.99951h16v-15.999h.00684a24.00049 24.00049 0 0 0 -.00684-48.001z" fill="#d45d13"/><path d="m248 16h16v24h-16z" fill="#f07f2f"/><path d="m160.318 52.319h16v24h-16z" fill="#f07f2f" transform="matrix(.707 -.707 .707 .707 3.819 137.858)"/><path d="m206.63818 320a24.03916 24.03916 0 0 0 -22.63818-16h-.00488l-28.76758.00586a89.30427 89.30427 0 0 0 -61.17383-24.00586h-22.05371v16h22.05371a73.45859 73.45859 0 0 1 52.29 21.6626 7.99952 7.99952 0 0 0 5.65723 2.34375h.00195l31.99516-.00635a8 8 0 0 1 .00488 16h-40.00293v16l32.00391.00244 23.99609-.00183v15.99939h-40a112.70022 112.70022 0 0 1 -67.2002-22.3999 7.9984 7.9984 0 0 0 -4.7998-1.6001h-16v16h13.38184a128.848 128.848 0 0 0 74.61816 24h40v32h16v-96z" fill="#deae7e"/><path d="m280 339.15562v-27.15578a16 16 0 0 1 16-16 16 16 0 0 1 16 16v27.15578z" fill="#f5c99d"/><path d="m326.61035 320h41.06153a7.9707 7.9707 0 0 0 5.98339-2.3374 73.45859 73.45859 0 0 1 52.29004-21.6626h14.05469v-16h-14.05469a89.30186 89.30186 0 0 0 -61.167 24h-38.16991a21.49 21.49 0 0 0 -7.54907 1.36353 23.99722 23.99722 0 0 0 -47.05933 6.63647v23.96973a62.16589 62.16589 0 0 0 -16 41.81347v9.37256h16v-9.37256a46.31947 46.31947 0 0 1 13.65625-32.9702 7.99917 7.99917 0 0 0 2.34375-5.65724v-27.15576a8 8 0 0 1 16 0v51.15576a86.9962 86.9962 0 0 1 -14.65625 48.40674 7.99983 7.99983 0 0 0 -1.34375 4.4375v16h16v-13.63037a102.91032 102.91032 0 0 0 13.87427-34.36963h42.12573a128.84727 128.84727 0 0 0 74.61719-24h5.38281v-16h-8.001a8.00055 8.00055 0 0 0 -4.7998 1.6001 112.69952 112.69952 0 0 1 -67.1992 22.3999h-40.12646c.075-1.6106.12646-3.22437.12646-4.84424v-11.15527l29.21387.00195 18.78613-.00244v-16h-41.39258c-3.64355-.00049-6.60742-3.58936-6.60742-8a8.71487 8.71487 0 0 1 2.1875-5.91992 6.078 6.078 0 0 1 4.42285-2.08008z" fill="#deae7e"/><path d="m200 416h112v72h-112z" fill="#009ff5"/></svg>