<svg height="512pt" viewBox="0 0 512 512" width="512pt" xmlns="http://www.w3.org/2000/svg"><path d="m0 96v384c0 17.679688 14.320312 32 32 32h448c17.679688 0 32-14.320312 32-32v-384zm0 0" fill="#e1eaf7"/><path d="m0 0h512v128h-512zm0 0" fill="#b0bec5"/><path d="m64 48h32v32h-32zm0 0" fill="#fff"/><path d="m128 48h32v32h-32zm0 0" fill="#fff"/><path d="m432 80h-224c-8.832031 0-16-7.167969-16-16s7.167969-16 16-16h224c8.832031 0 16 7.167969 16 16s-7.167969 16-16 16zm0 0" fill="#90a4ae"/><path d="m384 320c0 70.691406-57.308594 128-128 128s-128-57.308594-128-128 57.308594-128 128-128 128 57.308594 128 128zm0 0" fill="#e76e54"/><path d="m315.3125 283.3125-22.625-22.625-36.6875 36.6875-36.6875-36.6875-22.625 22.625 36.6875 36.6875-36.6875 36.6875 22.625 22.625 36.6875-36.6875 36.6875 36.6875 22.625-22.625-36.6875-36.6875zm0 0" fill="#fff"/></svg>